<?xml version="1.0" standalone="no"?>
<!DOCTYPE svg PUBLIC "-//W3C//DTD SVG 20010904//EN"
 "http://www.w3.org/TR/2001/REC-SVG-20010904/DTD/svg10.dtd">
<svg version="1.0" xmlns="http://www.w3.org/2000/svg"
 width="150.000000pt" height="150.000000pt" viewBox="0 0 150.000000 150.000000"
 preserveAspectRatio="xMidYMid meet">

<g transform="translate(0.000000,150.000000) scale(0.100000,-0.100000)"
fill="#000000" stroke="none">
<path d="M723 1457 c-28 -23 -85 -69 -126 -102 -42 -33 -76 -65 -76 -70 -1 -6
9 -21 22 -35 29 -32 239 -270 291 -330 21 -25 31 -33 22 -18 -9 15 -16 32 -16
37 0 6 46 51 102 101 80 71 106 89 122 84 54 -17 109 -49 118 -70 9 -19 14
-21 25 -13 7 6 13 22 13 35 0 24 23 33 35 14 6 -10 -41 -61 -94 -100 -27 -21
-32 -30 -27 -48 4 -12 13 -22 21 -22 7 0 12 -8 11 -17 -1 -12 11 -22 37 -30
75 -25 136 28 138 119 0 18 3 27 6 21 2 -7 11 -13 19 -13 8 0 14 -9 14 -20 0
-12 -7 -20 -17 -20 -15 0 -16 -2 -3 -10 38 -24 -87 -117 -140 -105 -14 3 -34
9 -45 12 -17 5 -18 4 -6 -10 11 -14 11 -19 -1 -31 -120 -128 -120 -128 -137
-112 -9 8 -24 28 -34 44 l-17 30 70 65 70 65 -7 48 c-5 40 -4 46 9 41 9 -3 24
1 35 8 10 8 14 15 9 15 -5 0 -3 7 4 15 10 12 10 15 -1 15 -8 0 -20 -9 -27 -20
-9 -14 -19 -19 -35 -15 -18 5 -26 0 -37 -19 -7 -14 -21 -28 -30 -31 -9 -3 -34
-30 -55 -60 -20 -30 -40 -55 -44 -55 -3 0 -12 -4 -20 -9 -11 -7 2 -29 60 -99
41 -50 95 -116 121 -149 42 -53 54 -61 142 -96 103 -41 100 -42 164 14 l42 36
0 224 c-1 217 -1 225 -23 249 -12 14 -31 32 -41 40 -18 14 -19 13 -12 -12 4
-17 2 -28 -4 -28 -5 0 -10 6 -10 14 0 8 -6 16 -12 19 -9 3 -10 10 -3 23 8 16
-1 30 -59 89 -38 39 -54 52 -36 30 38 -45 23 -64 -17 -20 -25 26 -25 26 -47 7
-23 -21 -54 -35 -73 -35 -33 1 -35 4 -17 24 29 34 95 79 105 73 5 -3 9 -2 9 1
0 15 -67 61 -97 66 -31 5 -33 4 -33 -23 0 -33 -8 -34 -61 -9 -31 15 -47 18
-65 10 -33 -12 -31 -13 -31 15 0 14 6 27 13 30 8 3 14 16 14 30 0 22 -3 24
-28 16 -16 -4 -48 -20 -71 -35 -32 -20 -40 -30 -32 -38 21 -21 13 -37 -14 -27
-16 6 -25 6 -25 0 0 -6 -6 -10 -12 -10 -20 0 -58 -63 -53 -88 3 -19 1 -22 -15
-17 -12 4 -20 2 -20 -4 0 -6 -6 -11 -14 -11 -13 0 -56 61 -56 80 0 16 123 136
155 152 70 36 191 79 208 74 17 -4 17 -3 4 17 -13 20 -24 22 -108 24 l-94 3
-52 -43z m187 -167 c-11 -21 1 -57 24 -72 22 -15 58 -7 80 17 15 16 30 23 40
19 18 -7 16 -31 -3 -26 -6 1 -20 -7 -31 -18 -11 -11 -33 -20 -51 -20 -22 0
-30 -4 -26 -13 3 -8 -18 -37 -48 -66 -29 -29 -58 -65 -65 -81 -6 -16 -18 -31
-26 -34 -15 -6 -104 93 -104 117 0 20 27 29 50 17 36 -19 83 -11 119 20 32 28
33 31 17 48 -9 10 -16 22 -16 27 0 5 7 0 15 -11 19 -25 19 -11 1 25 -13 25
-13 31 0 50 19 27 39 28 24 1z m-100 -45 c-8 -10 -8 -15 1 -21 9 -5 7 -11 -6
-21 -28 -20 -35 -16 -32 15 4 38 15 52 33 45 11 -4 12 -9 4 -18z m490 -170 c0
-8 -9 -15 -20 -15 -13 0 -18 5 -14 15 4 8 12 15 20 15 8 0 14 -7 14 -15z m27
-9 c-3 -8 -1 -17 6 -19 7 -2 9 -8 5 -12 -4 -4 -11 -4 -17 0 -14 8 -14 45 0 45
6 0 9 -6 6 -14z m-167 -50 c0 -2 -7 -7 -16 -10 -8 -3 -12 -2 -9 4 6 10 25 14
25 6z m144 -12 c13 -12 23 -63 14 -64 -67 -10 -77 -10 -91 4 -9 9 -23 16 -33
16 -14 0 -12 6 11 30 32 34 74 40 99 14z m35 -220 c-6 -8 -15 -11 -20 -9 -4 3
-13 -4 -19 -15 -6 -11 -17 -20 -24 -20 -8 0 -32 -18 -54 -40 -22 -22 -45 -40
-51 -40 -7 0 -9 -5 -5 -11 3 -6 0 -15 -7 -20 -18 -11 -32 -11 -25 0 4 5 1 11
-6 13 -23 8 66 128 96 128 5 0 17 7 26 15 10 9 27 18 40 20 12 2 25 7 28 10 3
2 11 0 19 -6 10 -9 10 -15 2 -25z m89 14 c-3 -7 -17 -15 -33 -16 -25 -3 -27
-2 -16 12 16 19 55 22 49 4z m-31 -74 c7 -18 -12 -39 -44 -49 -19 -5 -23 -3
-23 17 0 43 53 68 67 32z m-133 -38 c-16 -13 -31 -22 -34 -19 -3 3 8 15 25 28
38 31 46 23 9 -9z m66 -35 c0 -17 -49 -63 -59 -56 -16 9 -13 25 4 25 8 0 15 9
15 20 0 13 7 20 20 20 11 0 20 -4 20 -9z m-154 -78 c-10 -10 -19 5 -10 18 6
11 8 11 12 0 2 -7 1 -15 -2 -18z"/>
<path d="M988 1404 c-16 -8 -28 -19 -28 -25 0 -6 5 -7 10 -4 6 3 10 -2 10 -12
0 -11 3 -14 8 -7 4 6 17 14 30 18 25 8 28 19 10 34 -9 7 -21 6 -40 -4z"/>
<path d="M1044 1306 c12 -26 21 -35 23 -25 6 24 -13 66 -29 66 -12 0 -10 -9 6
-41z"/>
<path d="M965 1331 c-6 -11 42 -27 52 -17 8 8 3 12 -24 20 -12 4 -24 2 -28 -3z"/>
<path d="M385 1185 c-39 -30 -86 -68 -105 -85 -19 -16 -42 -30 -51 -30 -20 0
-34 -31 -18 -40 6 -4 9 -16 7 -26 -4 -19 -19 -22 -66 -11 -18 5 -22 2 -22 -18
0 -18 4 -22 19 -18 19 5 36 -21 25 -38 -8 -14 -31 -11 -38 6 -10 26 -44 18
-50 -12 -7 -35 -1 -133 9 -155 4 -11 3 -18 -3 -18 -7 0 -11 -55 -11 -155 -1
-107 2 -155 10 -155 6 0 13 9 16 20 6 22 23 28 23 8 0 -9 3 -8 13 1 9 11 9 14
0 18 -7 3 -13 11 -13 20 0 10 6 12 23 8 25 -8 50 -36 73 -83 12 -24 20 -30 29
-22 6 5 15 7 18 3 4 -3 7 -2 7 4 0 15 -27 36 -38 29 -5 -3 -9 6 -9 21 -1 15
-6 29 -12 31 -6 2 -9 7 -6 12 9 14 -14 60 -30 60 -17 0 -19 9 -6 29 5 7 14 10
20 7 6 -4 11 -3 11 3 0 5 -4 12 -10 16 -14 9 1 37 17 31 8 -4 11 -1 7 5 -3 6
-14 9 -23 6 -12 -3 -17 3 -19 21 -2 21 1 23 23 18 22 -6 27 -2 41 31 9 21 28
62 43 91 31 62 21 63 192 -9 65 -27 124 -49 129 -49 13 0 149 102 149 112 1 8
-287 362 -297 366 -4 1 -39 -23 -77 -53z m-252 -349 c5 -13 -10 -36 -23 -36
-3 0 -7 11 -8 25 -2 27 22 36 31 11z m127 -48 c0 -5 -9 -3 -20 4 -15 10 -27
10 -50 1 -33 -12 -45 -4 -35 26 6 18 7 18 55 -2 28 -12 50 -25 50 -29z m-113
-60 c5 -7 8 -29 8 -48 0 -28 -4 -36 -21 -38 -30 -4 -39 33 -12 52 12 9 15 16
9 21 -13 8 -15 25 -2 25 5 0 13 -6 18 -12z"/>
<path d="M265 1200 c4 -6 11 -8 16 -5 14 9 11 15 -7 15 -8 0 -12 -5 -9 -10z"/>
<path d="M147 1140 c6 -23 49 -53 63 -45 6 3 10 14 10 25 0 14 5 17 23 13 17
-4 16 -1 -7 11 -23 13 -31 14 -37 4 -7 -10 -12 -11 -29 0 -26 16 -29 15 -23
-8z"/>
<path d="M97 1103 c-4 -3 -7 -15 -7 -26 0 -25 13 -14 17 13 3 21 1 24 -10 13z"/>
<path d="M96 1051 c-9 -10 -14 -25 -10 -35 6 -16 8 -16 26 1 22 20 27 20 38 3
5 -9 9 -9 14 -1 4 6 2 11 -4 11 -6 0 -8 5 -4 11 4 8 0 9 -15 4 -16 -5 -20 -3
-15 9 8 22 -9 20 -30 -3z"/>
<path d="M740 789 c-34 -29 -57 -56 -53 -60 11 -11 267 -117 302 -126 l26 -6
-31 34 c-16 19 -61 73 -100 121 -38 49 -72 88 -76 88 -3 0 -34 -23 -68 -51z"/>
<path d="M282 700 c0 -14 2 -19 5 -12 2 6 2 18 0 25 -3 6 -5 1 -5 -13z"/>
<path d="M220 593 c1 -18 18 -35 24 -24 4 6 4 16 1 21 -7 12 -25 13 -25 3z"/>
<path d="M1420 468 c-24 -26 -22 -38 8 -49 20 -8 22 -5 22 31 0 22 -2 40 -5
40 -2 0 -13 -10 -25 -22z"/>
<path d="M135 406 c-10 -7 -26 -11 -35 -9 -14 4 -15 -11 -13 -139 5 -268 4
-250 19 -237 12 10 13 9 8 -5 -5 -12 0 -16 20 -16 23 0 25 3 17 19 -6 10 -7
21 -4 25 12 12 51 6 57 -10 8 -22 8 -22 -11 -27 -10 -3 14 -4 52 -4 41 0 53 2
28 4 -23 2 -47 11 -53 19 -7 7 -11 14 -9 15 2 0 17 3 34 5 51 9 41 14 -28 14
-60 0 -67 2 -67 20 0 18 7 20 57 20 52 0 55 1 37 15 -12 9 -14 14 -6 15 7 0
10 5 7 11 -12 18 5 79 21 79 12 0 11 5 -5 26 -12 15 -21 33 -21 40 0 8 -4 14
-9 14 -15 0 -22 33 -9 41 6 4 16 5 20 3 4 -3 8 4 8 15 0 11 -9 25 -19 31 -27
14 -31 13 -31 -10 0 -18 -29 -30 -31 -12 -5 48 -11 55 -34 38z"/>
<path d="M1201 346 c-51 -28 -66 -104 -30 -149 28 -37 88 -54 125 -36 38 19
63 66 57 106 -8 48 -29 49 -25 2 4 -42 -19 -91 -41 -88 -7 1 -19 1 -27 0 -13
-1 -13 -2 0 -11 13 -8 12 -10 -2 -10 -10 0 -18 6 -18 14 0 7 -9 16 -19 19 -29
7 -54 52 -47 82 11 42 44 68 77 61 23 -4 29 -2 29 12 0 15 -2 15 -10 2 -6 -10
-10 -11 -10 -2 0 16 -28 15 -59 -2z"/>
<path d="M686 303 c-6 -14 -5 -15 5 -6 7 7 10 15 7 18 -3 3 -9 -2 -12 -12z"/>
<path d="M660 250 c0 -11 4 -20 9 -20 5 0 7 9 4 20 -3 11 -7 20 -9 20 -2 0 -4
-9 -4 -20z"/>
<path d="M771 248 c0 -10 -7 -18 -13 -18 -10 0 -10 -2 -2 -8 7 -4 14 -18 16
-32 1 -14 5 -20 8 -15 3 6 3 28 -1 50 -3 22 -7 32 -8 23z"/>
<path d="M1230 229 c0 -5 5 -7 10 -4 6 3 10 8 10 11 0 2 -4 4 -10 4 -5 0 -10
-5 -10 -11z"/>
<path d="M1440 188 c0 -7 -16 -51 -35 -98 -19 -46 -35 -85 -35 -87 0 -2 18 -3
40 -3 l40 0 0 100 c0 55 -2 100 -5 100 -3 0 -5 -6 -5 -12z"/>
</g>
</svg>
